<svg width="68" height="68" viewBox="0 0 68 68" fill="none" xmlns="http://www.w3.org/2000/svg">
<path d="M34 20.281C34.3978 20.281 34.7794 20.1204 35.0607 19.8346C35.342 19.5487 35.5 19.161 35.5 18.7567C35.5 18.3525 35.342 17.9647 35.0607 17.6789C34.7794 17.393 34.3978 17.2324 34 17.2324C33.6022 17.2324 33.2206 17.393 32.9393 17.6789C32.658 17.9647 32.5 18.3525 32.5 18.7567C32.5 19.161 32.658 19.5487 32.9393 19.8346C33.2206 20.1204 33.6022 20.281 34 20.281ZM34 50.7671C34.3978 50.7671 34.7794 50.6066 35.0607 50.3207C35.342 50.0348 35.5 49.6471 35.5 49.2428C35.5 48.8386 35.342 48.4509 35.0607 48.165C34.7794 47.8791 34.3978 47.7185 34 47.7185C33.6022 47.7185 33.2206 47.8791 32.9393 48.165C32.658 48.4509 32.5 48.8386 32.5 49.2428C32.5 49.6471 32.658 50.0348 32.9393 50.3207C33.2206 50.6066 33.6022 50.7671 34 50.7671ZM34 35.5241C34.3978 35.5241 34.7794 35.3635 35.0607 35.0776C35.342 34.7918 35.5 34.4041 35.5 33.9998C35.5 33.5955 35.342 33.2078 35.0607 32.9219C34.7794 32.6361 34.3978 32.4755 34 32.4755C33.6022 32.4755 33.2206 32.6361 32.9393 32.9219C32.658 33.2078 32.5 33.5955 32.5 33.9998C32.5 34.4041 32.658 34.7918 32.9393 35.0776C33.2206 35.3635 33.6022 35.5241 34 35.5241Z" fill="#A2E3FF" stroke="#A2E3FF" stroke-width="5" stroke-linecap="round" stroke-linejoin="round"/>
<path d="M34 64.4859C50.569 64.4859 64 50.8373 64 33.9998C64 17.1623 50.569 3.51367 34 3.51367C17.431 3.51367 4 17.1623 4 33.9998C4 50.8373 17.431 64.4859 34 64.4859Z" stroke="#A2E3FF" stroke-width="5" stroke-linecap="round" stroke-linejoin="round"/>
</svg>
