<svg width="37" height="35" viewBox="0 0 37 35" fill="none" xmlns="http://www.w3.org/2000/svg">
<path d="M18.1667 2.12891V32.615C12.3333 32.615 7.99917 24.858 7.99917 24.858H3.16667C2.72464 24.858 2.30072 24.6796 1.98816 24.3619C1.67559 24.0443 1.5 23.6135 1.5 23.1643V11.4526C1.5 11.0034 1.67559 10.5726 1.98816 10.255C2.30072 9.93734 2.72464 9.7589 3.16667 9.7589H7.99917C7.99917 9.7589 12.3333 2.12891 18.1667 2.12891Z" stroke="white" stroke-width="3" stroke-linejoin="round"/>
<path d="M24.8359 9.75C25.3569 10.2231 25.8273 10.7508 26.2393 11.3243C27.4988 13.0803 28.1748 15.1985 28.1693 17.3715C28.1693 19.619 27.4643 21.6963 26.2709 23.3756C25.8513 23.9657 25.3702 24.508 24.8359 24.9931" stroke="white" stroke-width="3" stroke-linecap="round" stroke-linejoin="round"/>
<path d="M26.6953 31.9259C31.5686 28.9704 34.832 23.5583 34.832 17.3721C34.832 11.2817 31.6686 5.94324 26.9211 2.95898" stroke="white" stroke-width="3" stroke-linecap="round"/>
</svg>
